<?xml version="1.0" standalone="no"?>
<!DOCTYPE svg PUBLIC "-//W3C//DTD SVG 20010904//EN"
 "http://www.w3.org/TR/2001/REC-SVG-20010904/DTD/svg10.dtd">
<svg version="1.0" xmlns="http://www.w3.org/2000/svg"
 width="736.000000pt" height="736.000000pt" viewBox="0 0 736.000000 736.000000"
 preserveAspectRatio="xMidYMid meet">
<metadata>
Created by potrace 1.11, written by Peter Selinger 2001-2013
</metadata>
<g transform="translate(0.000000,736.000000) scale(0.100000,-0.100000)"
fill="#000000" stroke="none">
<path d="M3664 7347 c-22 -23 -54 -47 -54 -39 0 4 -4 2 -8 -4 -12 -17 -93 -69
-162 -104 -36 -18 -73 -39 -82 -48 -10 -8 -18 -12 -18 -7 0 4 -6 3 -12 -2 -7
-6 -58 -34 -113 -63 -55 -29 -127 -67 -160 -85 -107 -58 -228 -122 -350 -185
-66 -34 -124 -66 -130 -70 -5 -4 -59 -33 -120 -65 -60 -32 -135 -71 -165 -87
-52 -28 -147 -78 -375 -198 -55 -29 -104 -57 -109 -61 -6 -5 -18 -9 -27 -9
-10 0 -19 -4 -21 -8 -3 -7 -108 -65 -318 -175 -41 -21 -81 -44 -87 -49 -7 -6
-13 -7 -13 -3 0 4 -7 2 -15 -5 -8 -7 -15 -9 -15 -4 0 5 -4 4 -8 -3 -8 -13
-400 -204 -424 -207 -4 -1 -13 -7 -20 -13 -6 -7 -16 -13 -21 -13 -5 0 -79 -34
-165 -76 -87 -42 -172 -83 -190 -90 -32 -14 -32 -14 -32 -87 0 -39 4 -99 10
-132 5 -33 12 -107 14 -165 3 -58 8 -127 10 -155 3 -27 10 -135 16 -240 13
-236 19 -305 25 -315 3 -5 1 -11 -4 -14 -5 -3 -5 -25 -1 -48 7 -37 24 -300 36
-538 2 -41 4 -75 4 -75 3 0 22 -325 28 -455 2 -52 7 -99 11 -103 5 -5 5 -23 2
-40 -4 -18 -4 -52 0 -77 4 -25 13 -139 19 -255 13 -241 20 -337 27 -347 2 -5
0 -8 -6 -8 -6 0 -6 -11 0 -32 5 -18 9 -157 9 -308 l0 -275 58 -26 c43 -19 462
-287 527 -336 22 -17 589 -388 598 -392 5 -2 17 -10 26 -17 9 -8 187 -126 396
-263 209 -138 484 -318 610 -401 127 -83 336 -221 465 -305 129 -85 259 -176
289 -202 30 -26 60 -51 67 -56 9 -5 39 20 95 78 74 77 107 100 353 252 149 91
283 173 298 180 15 8 30 18 33 23 3 5 31 21 61 37 31 15 59 34 61 41 3 6 10
12 15 12 6 0 148 85 317 189 168 103 437 268 596 366 160 97 306 187 325 199
19 13 136 85 260 161 124 75 311 191 415 255 105 65 213 128 241 140 l51 23 6
111 c4 61 10 271 13 466 4 195 10 364 14 375 4 10 4 34 0 52 -4 17 -5 35 -2
38 7 7 4 133 -3 145 -3 5 -2 11 3 14 4 2 9 76 10 163 2 174 19 830 27 1043 2
74 7 239 9 365 3 127 11 383 17 570 6 187 7 341 2 342 -4 2 -62 32 -127 68
-66 36 -125 65 -132 65 -7 0 -15 4 -18 9 -5 7 -506 276 -541 290 -5 2 -12 7
-15 10 -3 3 -43 25 -90 48 -47 23 -137 70 -200 103 -63 34 -171 91 -240 127
-127 67 -207 110 -225 121 -5 4 -12 7 -15 7 -3 0 -48 23 -100 51 -52 28 -138
74 -190 102 -52 27 -169 89 -260 137 -91 48 -178 94 -195 103 -16 8 -41 21
-55 28 -14 8 -95 51 -180 95 -246 130 -376 201 -504 278 -65 39 -124 71 -130
71 -6 -1 -16 -6 -22 -13z m-61 -359 c-3 -46 -5 -94 -5 -108 1 -37 1 -143 1
-160 -1 -8 -1 -26 0 -40 1 -47 -18 -492 -21 -495 -3 -3 -64 -13 -358 -61 -85
-13 -249 -40 -365 -59 -115 -19 -284 -46 -375 -60 -91 -15 -190 -32 -220 -38
-30 -6 -58 -10 -63 -9 -4 1 -59 -7 -123 -19 -64 -11 -122 -18 -130 -15 -8 3
-14 2 -14 -2 0 -7 -126 -30 -206 -37 -18 -2 -37 -6 -41 -8 -8 -5 -117 -23
-203 -33 -19 -3 -84 -13 -145 -23 -60 -11 -111 -18 -112 -17 -3 3 18 14 214
117 76 39 145 78 154 85 8 8 22 14 30 14 8 0 19 4 25 9 5 4 54 32 109 61 55
29 156 83 225 120 69 37 184 98 255 135 72 38 135 71 140 76 6 4 73 40 150 79
77 40 158 84 180 98 22 14 41 24 43 23 1 -1 44 20 95 48 51 27 99 51 107 53 8
2 20 8 27 14 6 6 121 69 255 140 134 70 270 143 303 161 33 18 63 32 67 33 4
0 4 -37 1 -82z m259 53 c29 -16 256 -135 503 -266 560 -295 623 -328 815 -430
85 -45 205 -108 265 -140 61 -32 133 -70 160 -85 28 -15 113 -60 190 -100 77
-40 154 -80 170 -90 17 -9 98 -52 180 -95 246 -129 245 -126 70 -95 -60 11
-126 23 -145 26 -78 12 -328 55 -375 64 -27 5 -66 12 -85 15 -19 3 -48 8 -64
11 -16 4 -40 7 -55 9 -14 1 -93 15 -176 29 -82 15 -177 31 -210 36 -60 10 -81
13 -410 70 -99 17 -191 33 -205 35 -79 13 -269 46 -290 50 -14 2 -54 9 -90 15
-36 6 -126 21 -200 33 l-135 23 0 30 c0 155 18 801 23 809 3 5 5 24 3 42 -1
18 0 33 3 33 2 0 29 -13 58 -29z m-348 -1096 c-4 -8 -10 -15 -15 -15 -5 0 -9
-5 -9 -11 0 -8 -74 -149 -110 -209 -8 -14 -128 -231 -193 -350 -17 -30 -71
-127 -120 -215 -50 -88 -104 -187 -121 -220 -17 -33 -33 -62 -36 -65 -3 -3
-37 -61 -75 -130 -82 -149 -82 -150 -174 -315 -39 -71 -76 -137 -81 -145 -5
-8 -66 -118 -136 -245 -69 -126 -134 -241 -143 -255 -10 -14 -23 -42 -30 -63
-7 -20 -17 -35 -22 -32 -5 4 -9 -3 -9 -14 0 -12 -4 -21 -10 -21 -5 0 -10 -9
-10 -20 0 -11 -4 -20 -9 -20 -5 0 -11 -8 -14 -17 -3 -10 -24 -49 -47 -88 -22
-38 -49 -88 -60 -110 -12 -22 -29 -53 -38 -70 -10 -16 -81 -142 -157 -280 -77
-137 -143 -253 -148 -256 -5 -3 -8 -8 -6 -10 1 -2 -7 -21 -18 -43 l-20 -38
-11 28 c-13 36 -223 663 -227 678 -1 6 -5 18 -8 26 -4 8 -108 319 -232 690
-124 371 -230 685 -237 697 -6 13 -8 26 -5 30 4 3 3 11 -2 17 -8 10 -211 606
-215 631 -1 5 -5 15 -9 21 -7 12 78 29 94 18 5 -3 9 0 9 5 0 6 11 11 25 11 14
0 64 7 112 15 49 8 102 16 118 19 17 3 56 9 89 15 32 6 61 10 65 9 3 -1 13 1
21 4 15 6 402 69 450 74 14 2 63 10 110 18 47 9 184 32 305 51 121 20 301 49
400 66 99 16 198 32 220 34 22 3 65 10 95 15 30 5 102 17 160 25 58 9 123 20
145 25 22 5 57 8 77 7 21 -1 39 1 40 4 3 6 165 35 210 38 12 1 15 -4 12 -14z
m633 -46 c131 -22 288 -49 348 -60 61 -10 126 -22 145 -24 19 -3 100 -17 180
-31 80 -13 235 -40 345 -59 110 -19 322 -55 470 -81 356 -61 365 -63 400 -68
46 -7 277 -45 305 -51 21 -4 113 -20 236 -40 l31 -5 -57 -170 c-31 -94 -60
-173 -64 -177 -3 -3 -6 -13 -6 -21 0 -8 -18 -65 -40 -127 -22 -62 -41 -121
-43 -131 -1 -10 -7 -26 -12 -34 -5 -8 -11 -24 -12 -35 -2 -11 -8 -22 -13 -23
-6 -2 -8 -8 -5 -12 5 -9 -105 -343 -127 -387 -6 -13 -8 -26 -5 -30 4 -3 3 -11
-3 -17 -5 -7 -30 -75 -55 -151 -26 -77 -50 -149 -55 -160 -4 -11 -22 -63 -39
-115 -17 -52 -105 -315 -196 -585 -92 -269 -172 -510 -179 -534 l-12 -45 -21
35 c-11 19 -58 102 -103 184 -45 83 -86 155 -90 160 -4 6 -30 53 -57 105 -81
152 -88 165 -97 171 -5 4 -5 12 -2 18 4 6 3 11 -2 11 -6 0 -74 116 -153 258
-78 141 -150 271 -159 287 -9 17 -63 112 -119 213 -56 100 -107 195 -114 210
-6 15 -14 29 -17 32 -6 5 -117 202 -200 355 -18 33 -37 62 -41 63 -5 2 -9 10
-9 18 0 7 -13 35 -29 61 -29 49 -563 1010 -569 1025 -5 11 -22 13 245 -33z
m-290 -294 c143 -245 533 -940 533 -950 0 -3 11 -22 23 -43 25 -38 58 -96 110
-192 16 -30 42 -74 58 -97 16 -23 29 -49 29 -57 0 -9 3 -16 8 -16 4 0 18 -25
31 -55 14 -30 28 -55 33 -55 4 0 8 -5 8 -11 0 -9 275 -510 332 -604 10 -16 21
-37 25 -45 18 -41 368 -666 376 -671 5 -3 7 -8 6 -10 -4 -5 91 -180 109 -201
12 -15 12 -18 1 -23 -8 -2 -225 -6 -484 -9 -258 -2 -476 -4 -482 -5 -7 -1 -23
-1 -35 -1 -13 0 -65 -1 -116 -3 -50 -1 -92 1 -92 5 0 4 -13 3 -30 -2 -17 -5
-30 -5 -30 0 0 5 -13 5 -30 0 -17 -5 -30 -5 -30 0 0 5 -13 5 -30 0 -17 -5 -30
-5 -30 0 0 5 -13 5 -29 0 -15 -4 -34 -4 -42 0 -7 5 -20 5 -29 0 -9 -5 -22 -5
-30 0 -8 5 -21 5 -30 0 -9 -5 -22 -5 -30 0 -8 5 -21 5 -31 0 -9 -5 -19 -7 -22
-3 -4 3 -33 5 -64 4 -32 -1 -64 -2 -70 -2 -7 1 -24 1 -38 1 -14 0 -32 0 -40 0
-8 0 -26 0 -40 0 -14 0 -32 0 -40 0 -8 0 -25 0 -37 0 -13 0 -36 -1 -53 -3 -16
-1 -42 1 -57 5 -16 3 -28 3 -28 -2 0 -5 -13 -5 -30 0 -17 5 -30 5 -30 0 0 -5
-13 -5 -30 0 -17 5 -30 5 -30 0 0 -5 -13 -5 -30 0 -17 5 -30 5 -30 0 0 -5 -13
-5 -30 0 -17 5 -30 5 -30 0 0 -5 -13 -5 -30 0 -17 5 -30 5 -30 0 0 -5 -13 -5
-30 0 -17 5 -30 5 -30 0 0 -5 -13 -5 -30 0 -17 5 -30 5 -30 0 0 -5 -13 -5 -30
0 -16 5 -30 5 -30 1 0 -5 -12 -6 -27 -4 -16 2 -32 3 -38 2 -29 -6 -1045 -8
-1045 -3 0 4 12 28 27 53 42 71 60 103 78 141 8 19 23 42 32 52 9 10 13 18 9
18 -4 0 2 13 13 29 12 16 21 31 21 34 0 3 61 115 136 249 141 251 162 287 222
398 20 36 40 67 44 68 4 2 8 9 8 16 0 7 15 38 34 69 19 31 32 57 29 57 -3 0 1
8 9 18 9 9 30 44 47 77 17 33 49 92 71 130 23 39 48 84 56 100 8 17 19 37 24
45 5 8 33 58 61 110 29 52 55 97 58 100 3 3 16 25 29 50 39 75 247 451 279
505 7 11 17 31 23 44 6 13 37 69 68 125 32 55 62 108 65 116 4 8 15 29 25 45
10 17 98 175 197 352 152 274 180 320 190 305 7 -9 75 -125 152 -257z m2842
-705 c-4 -146 -10 -348 -13 -450 -3 -102 -8 -291 -11 -420 -11 -518 -34 -1346
-38 -1390 -1 -14 1 -37 5 -52 3 -16 3 -28 -2 -28 -5 0 -5 -12 -1 -27 5 -16 5
-37 0 -48 -4 -11 -8 -86 -8 -167 -1 -82 -4 -148 -8 -148 -7 0 -26 8 -531 229
-139 61 -257 111 -263 111 -5 0 -9 7 -9 15 0 8 52 169 116 357 64 189 120 359
126 378 5 19 16 49 22 65 16 36 194 574 198 595 2 8 5 17 8 20 3 3 31 86 64
185 32 99 64 194 71 210 6 17 56 163 109 325 54 162 101 304 106 315 5 11 21
59 36 107 16 48 28 86 29 85 1 -1 -2 -121 -6 -267z m-6022 228 c-3 -8 -6 -5
-6 6 -1 11 2 17 5 13 3 -3 4 -12 1 -19z m33 -91 c0 -9 5 -25 10 -35 6 -9 78
-219 160 -467 82 -247 156 -470 165 -495 9 -25 128 -379 265 -788 l249 -742
-40 -20 c-21 -11 -39 -17 -39 -14 0 4 -8 0 -17 -8 -10 -9 -29 -19 -43 -23 -25
-7 -135 -53 -200 -84 -19 -8 -37 -16 -40 -17 -3 0 -23 -9 -45 -19 -22 -9 -46
-18 -53 -19 -7 -1 -18 -8 -24 -14 -7 -7 -16 -12 -21 -12 -5 0 -45 -16 -88 -35
-44 -19 -82 -35 -84 -35 -6 0 -28 225 -27 275 0 6 1 21 1 35 1 14 -5 111 -13
215 -8 105 -17 240 -20 300 -4 61 -9 142 -11 180 -12 171 -26 399 -31 505 -6
110 -10 170 -34 500 -6 80 -10 163 -10 185 0 22 1 45 1 50 0 6 -7 100 -15 210
-8 110 -17 244 -20 298 -2 55 -7 101 -9 103 -3 3 -2 15 1 27 5 20 6 20 18 -8
7 -17 13 -38 14 -48z m4703 -2779 c-59 -68 -124 -141 -144 -163 -20 -22 -50
-56 -65 -75 -16 -19 -50 -57 -75 -85 -26 -27 -104 -115 -175 -195 -179 -204
-199 -226 -269 -305 -117 -131 -175 -200 -175 -207 0 -5 -6 -8 -12 -8 -7 0
-20 -11 -28 -24 -8 -14 -150 -176 -315 -362 -165 -186 -333 -375 -373 -421
l-74 -84 -71 77 c-40 42 -80 85 -89 96 -10 10 -17 18 -15 18 1 0 -53 57 -120
127 -67 71 -123 131 -123 135 0 4 -26 33 -59 65 -32 32 -150 157 -261 278
-111 121 -228 247 -259 280 -46 48 -416 446 -456 491 -5 6 -33 36 -60 65 -103
110 -321 346 -344 372 l-24 27 54 0 c30 0 65 0 79 0 14 0 67 -2 118 -3 50 -1
92 2 92 6 0 5 4 5 10 2 8 -5 63 -6 160 -4 8 1 27 0 43 0 15 -1 39 -1 55 -1 15
0 69 -2 120 -3 50 -1 92 2 92 6 0 5 4 5 10 2 8 -5 63 -6 160 -4 8 1 27 0 43 0
15 -1 39 -1 55 -1 15 0 69 -2 120 -3 50 -1 92 1 92 4 0 4 311 7 692 8 381 1
694 4 697 7 2 2 229 4 503 4 l499 0 -108 -122z m395 58 c26 -13 82 -38 125
-56 42 -17 77 -36 77 -41 0 -4 7 -6 15 -3 8 4 21 2 28 -4 6 -5 80 -39 164 -76
84 -36 160 -69 170 -75 20 -11 81 -36 103 -43 11 -4 7 -9 -12 -18 -16 -7 -28
-17 -28 -22 0 -4 -5 -8 -11 -8 -6 0 -24 -9 -40 -21 -16 -11 -29 -17 -29 -12 0
4 -4 3 -8 -3 -4 -6 -38 -30 -77 -54 -38 -24 -86 -53 -105 -65 -122 -79 -611
-375 -619 -375 -5 0 -11 -4 -13 -8 -4 -10 -105 -72 -118 -72 -6 0 -10 -5 -10
-10 0 -6 -8 -14 -18 -18 -23 -9 -135 -74 -142 -82 -9 -10 -210 -130 -219 -130
-5 0 -11 -4 -13 -8 -4 -10 -106 -72 -118 -72 -6 0 -13 -7 -16 -15 -4 -8 -10
-15 -15 -15 -5 0 -56 -29 -114 -65 -57 -36 -107 -65 -109 -65 -2 0 -28 -16
-57 -36 -30 -20 -64 -40 -76 -45 -13 -5 -23 -13 -23 -18 0 -5 -9 -13 -20 -16
-11 -4 -62 -32 -113 -64 -185 -115 -181 -117 -58 22 63 70 118 127 122 127 5
0 9 5 9 11 0 6 55 73 123 148 67 76 151 171 187 211 36 41 120 136 188 212 67
76 122 142 122 147 0 5 9 13 20 16 11 3 20 10 20 14 0 4 8 16 18 27 9 10 61
69 114 129 54 61 102 115 108 120 5 6 78 89 162 185 84 96 161 183 171 192 9
10 17 23 17 28 0 6 6 10 13 10 7 0 18 9 25 20 16 25 23 25 80 -4z m-3979 -241
c97 -104 188 -203 204 -220 15 -16 46 -50 70 -75 49 -52 152 -163 251 -270 38
-41 96 -105 130 -141 33 -36 68 -75 77 -86 10 -11 23 -25 31 -29 7 -5 29 -27
48 -50 34 -40 343 -376 464 -504 138 -147 152 -163 124 -145 -16 9 -28 21 -28
24 0 4 -6 8 -14 8 -8 0 -27 10 -42 22 -16 13 -92 64 -169 115 -77 50 -257 168
-400 262 -143 94 -440 289 -660 434 -220 144 -401 267 -403 271 -2 5 -8 9 -13
9 -6 0 -38 19 -72 42 -34 23 -63 41 -64 40 -2 -1 -11 5 -20 14 -10 8 -81 56
-158 106 -77 50 -142 93 -145 97 -3 3 -22 15 -43 25 l-37 19 42 20 c24 10 48
20 53 21 6 2 27 10 47 20 21 9 42 16 48 16 5 0 10 5 10 10 0 6 6 10 13 10 7 0
107 40 222 90 l210 90 24 -28 c13 -15 103 -112 200 -217z"/>
<path d="M2013 5442 c-222 -75 -403 -141 -403 -146 1 -31 20 -34 229 -40 118
-3 216 -8 219 -11 3 -3 -1 -13 -10 -22 -8 -10 -77 -118 -152 -240 l-138 -221
-50 71 c-27 40 -75 109 -105 155 -48 70 -60 82 -85 82 -15 0 -28 -5 -28 -11 0
-14 84 -388 146 -648 9 -35 21 -91 29 -125 84 -392 126 -556 142 -556 16 0 44
30 38 40 -3 5 1 100 10 212 25 337 34 468 41 571 4 59 11 100 19 105 6 4 40
54 76 112 35 58 67 107 71 108 4 2 8 8 8 13 0 6 82 144 183 307 100 163 186
307 190 319 5 13 16 23 25 23 13 0 12 4 -6 20 -12 11 -27 20 -34 19 -7 -1
-194 -62 -415 -137z"/>
<path d="M2262 4971 c-55 -35 -74 -76 -70 -156 4 -77 27 -122 77 -145 14 -7
34 -16 43 -21 10 -5 20 -5 23 1 3 6 15 10 25 10 29 0 87 61 100 107 19 63 6
124 -38 173 -31 35 -45 43 -82 47 -34 3 -53 -1 -78 -16z"/>
<path d="M4806 5388 c-15 -62 -38 -160 -52 -218 -14 -58 -30 -127 -36 -155 -6
-27 -17 -74 -25 -104 -8 -29 -12 -56 -9 -59 3 -3 2 -10 -3 -16 -5 -6 -12 -27
-15 -46 -6 -34 0 -42 205 -280 116 -135 223 -258 238 -275 14 -16 94 -109 176
-205 82 -96 152 -177 155 -180 3 -3 64 -72 134 -155 115 -135 164 -191 228
-262 23 -26 31 -28 46 -10 8 9 0 34 -28 92 -153 314 -200 417 -195 425 3 4 1
10 -5 12 -6 2 -44 75 -86 163 -42 88 -96 203 -121 255 -25 52 -56 118 -68 146
-25 55 -57 89 -258 278 -123 116 -156 156 -127 156 5 0 7 6 4 14 -3 7 13 89
36 182 22 93 38 174 36 181 -3 7 -1 13 5 13 6 0 9 15 7 33 -3 29 -10 36 -93
80 -49 26 -97 47 -106 47 -13 0 -23 -25 -43 -112z"/>
<path d="M5570 5122 c-24 -10 -50 -28 -56 -40 -6 -12 -14 -77 -18 -145 -3 -67
-9 -133 -11 -147 -3 -14 -8 -78 -11 -143 -6 -112 0 -147 25 -147 4 0 30 28 58
63 28 34 66 78 83 97 18 19 37 43 44 52 12 17 22 14 147 -33 228 -86 219 -84
242 -61 l20 20 -22 29 c-13 15 -43 49 -67 75 -24 26 -44 51 -44 57 0 6 -4 11
-9 11 -5 0 -23 15 -39 33 -16 17 -83 91 -147 162 -65 72 -125 131 -134 132 -9
1 -36 -6 -61 -15z"/>
<path d="M3825 4575 c-54 -41 -101 -75 -104 -75 -4 0 -44 25 -90 55 -46 30
-90 55 -97 55 -16 0 -30 -50 -44 -160 -5 -47 -19 -150 -30 -230 -11 -80 -22
-174 -25 -210 -3 -35 -7 -65 -8 -67 -2 -1 -88 55 -192 124 -105 69 -206 136
-227 149 l-36 23 -17 -25 c-16 -25 -15 -26 152 -255 92 -126 176 -244 187
-262 10 -18 22 -33 27 -35 5 -2 -48 -115 -116 -252 -69 -136 -125 -252 -125
-258 0 -5 -7 -12 -15 -16 -8 -3 -14 -9 -14 -13 1 -4 -5 -25 -14 -45 -17 -38
-22 -68 -11 -68 8 0 67 40 79 55 6 6 32 26 59 45 27 18 87 66 132 107 45 40
84 73 86 73 2 0 26 20 52 45 27 25 52 42 56 40 5 -3 35 -69 68 -148 34 -78 71
-164 83 -192 13 -27 24 -52 24 -55 1 -3 9 -22 18 -44 9 -21 17 -41 17 -44 0
-3 16 -38 35 -79 19 -40 37 -84 41 -98 9 -36 36 -28 51 15 68 200 112 322 122
333 6 8 9 16 6 19 -3 2 6 33 20 69 14 35 23 69 20 76 -2 7 -1 13 4 13 5 0 26
52 47 115 34 100 40 113 54 101 8 -7 24 -20 35 -29 34 -27 279 -228 305 -251
115 -98 300 -246 308 -246 39 0 -6 84 -129 242 -44 57 -90 116 -102 132 -12
16 -65 84 -117 151 -145 186 -145 187 -142 204 2 9 43 56 90 105 48 49 94 97
102 106 8 10 51 54 94 98 79 80 80 82 61 102 -10 11 -25 20 -33 20 -8 0 -107
-30 -219 -66 -113 -36 -209 -62 -213 -57 -4 4 -26 80 -48 168 -115 452 -135
514 -162 515 -3 0 -50 -34 -105 -75z m0 -602 c20 -49 46 -108 58 -133 11 -25
28 -64 38 -88 l19 -43 -56 -107 c-30 -59 -58 -109 -62 -112 -4 -3 -17 -24 -28
-48 l-22 -43 -11 28 c-6 15 -15 35 -20 43 -5 8 -39 74 -75 146 -57 115 -64
133 -52 150 8 10 46 83 86 161 40 78 76 140 80 138 4 -3 24 -44 45 -92z"/>
<path d="M4555 1959 c-26 -6 -215 -18 -580 -36 -251 -12 -259 -13 -277 -31 -7
-7 -16 -12 -21 -12 -8 0 -172 -69 -267 -112 -65 -30 -180 -80 -190 -83 -3 -1
-31 -13 -64 -28 -32 -15 -64 -27 -71 -27 -6 0 -20 -9 -29 -19 -10 -11 -25 -17
-37 -14 -10 3 -19 0 -19 -6 0 -6 -6 -11 -13 -11 -7 0 -32 -9 -55 -20 -22 -11
-47 -20 -54 -20 -16 0 -58 -28 -58 -38 0 -4 4 -13 9 -21 8 -12 15 -12 53 1 40
15 154 44 383 98 92 22 423 101 507 122 36 9 102 9 275 -1 320 -17 413 -22
453 -25 19 -2 110 -6 203 -9 l167 -6 0 154 0 155 -77 0 c-43 -1 -96 -4 -118
-9 -22 -4 -51 -4 -65 -1 -14 4 -38 3 -55 -1z"/>
<path d="M3806 1587 c-13 -23 -43 -76 -66 -117 -23 -41 -54 -95 -68 -120 -15
-25 -27 -47 -27 -50 -1 -5 -44 -82 -72 -127 -7 -13 -12 -24 -11 -25 2 -2 -7
-16 -18 -33 -12 -16 -43 -70 -69 -120 -26 -49 -51 -95 -56 -102 -7 -7 -3 -16
12 -27 25 -17 23 -17 90 39 19 16 46 39 60 50 13 11 52 44 86 73 33 28 66 52
72 52 6 0 11 4 11 8 0 9 210 189 248 213 20 13 22 21 22 111 l0 97 73 -5 c39
-3 128 -9 197 -14 69 -6 175 -13 236 -16 l110 -6 13 42 c7 23 11 44 8 46 -2 2
-39 6 -83 8 -143 8 -408 27 -454 32 -25 2 -90 7 -145 10 -55 4 -110 10 -122
15 -20 7 -26 3 -47 -34z"/>
</g>
</svg>
